<?xml version="1.0" encoding="UTF-8" standalone="no"?>
<!DOCTYPE svg PUBLIC "-//W3C//DTD SVG 1.1//EN" "http://www.w3.org/Graphics/SVG/1.1/DTD/svg11.dtd">
<svg width="100%" height="100%" viewBox="0 0 1439 756" version="1.1" xmlns="http://www.w3.org/2000/svg" xmlns:xlink="http://www.w3.org/1999/xlink" xml:space="preserve" xmlns:serif="http://www.serif.com/" style="fill-rule:evenodd;clip-rule:evenodd;stroke-linejoin:round;stroke-miterlimit:2;">
    <g transform="matrix(1,0,0,1,-5780,-6040)">
        <g transform="matrix(0.907114,0,0,0.839245,4316.78,6040.18)">
            <rect id="sulei_brand_colour" x="1613.06" y="0" width="1586.34" height="900" style="fill:none;"/>
            <g id="sulei_brand_colour1" serif:id="sulei_brand_colour">
                <g transform="matrix(1.1024,0,0,1.19155,871.143,-208.85)">
                    <g transform="matrix(1,0,0,1,83.1439,-63.5588)">
                        <path d="M899.77,637.35C899.77,645.224 896.131,652.657 889.91,657.485C883.69,662.313 875.587,663.994 867.959,662.041C813.179,647.866 772.653,598.079 772.653,538.9C772.653,479.721 813.179,429.933 867.969,415.8C875.585,413.849 883.675,415.528 889.885,420.348C896.095,425.168 899.729,432.588 899.729,440.45C899.77,489.373 899.77,588.427 899.77,637.35Z" style="fill:rgb(73,166,230);"/>
                    </g>
                    <g transform="matrix(-1,1.22465e-16,-1.22465e-16,-1,1912.68,1156.87)">
                        <path d="M899.77,637.35C899.77,645.224 896.131,652.657 889.91,657.485C883.69,662.313 875.587,663.994 867.959,662.041C813.179,647.866 772.653,598.079 772.653,538.9C772.653,479.721 813.179,429.933 867.969,415.8C875.585,413.849 883.675,415.528 889.885,420.348C896.095,425.168 899.729,432.588 899.729,440.45C899.77,489.373 899.77,588.427 899.77,637.35Z" style="fill:rgb(248,69,69);"/>
                    </g>
                    <g transform="matrix(0.25,0,0,0.25,960.032,293.428)">
                        <circle cx="465.765" cy="486.301" r="254.235" style="fill:rgb(183,104,246);"/>
                    </g>
                    <g transform="matrix(0.25,0,0,0.25,802.914,556.731)">
                        <circle cx="465.765" cy="486.301" r="254.235" style="fill:rgb(54,221,166);"/>
                    </g>
                </g>
                <g transform="matrix(1.1024,0,0,1.19155,1850.37,-1398.99)">
                    <g transform="matrix(1,0,0,1,0,8.08953)">
                        <path d="M345.937,1611.98C344.377,1615.42 345.444,1619.49 348.494,1621.72C365.277,1633.7 389.126,1639.7 420.059,1639.7C428.74,1639.7 437.602,1638.67 446.645,1636.62C455.688,1634.58 464.791,1631.26 473.954,1626.68C483.118,1622.1 490.593,1615.4 496.381,1606.6C502.168,1597.8 505.062,1587.61 505.062,1576.04C505.062,1564.22 501.927,1554.15 495.657,1545.83C489.388,1537.51 481.731,1531.49 472.688,1527.75C463.645,1524.01 454.663,1520.93 445.74,1518.52C436.818,1516.11 429.222,1513.82 422.952,1511.65C416.683,1509.48 413.548,1506.95 413.548,1504.06C413.548,1500.2 417.406,1498.27 425.123,1498.27C439.899,1498.27 455.322,1501.04 471.393,1506.58C475.312,1507.95 479.623,1506.08 481.303,1502.28C484.968,1494.04 491.074,1480.25 494.749,1471.94C496.498,1467.99 494.787,1463.37 490.887,1461.51C470.841,1452.26 448.2,1447.63 422.952,1447.63C401.973,1447.63 384.068,1453.05 369.237,1463.9C354.407,1474.76 346.992,1489.83 346.992,1509.12C346.992,1525.04 353.081,1537.69 365.259,1547.1C377.436,1556.5 394.618,1563.86 416.803,1569.16L423.133,1570.43C426.148,1571.03 428.258,1571.52 429.463,1571.88C430.669,1572.24 432.116,1572.78 433.804,1573.51C435.492,1574.23 436.698,1574.95 437.421,1575.67C438.144,1576.4 438.506,1577.36 438.506,1578.57C438.506,1580.74 436.939,1582.49 433.804,1583.81C430.669,1585.14 427.896,1585.98 425.484,1586.35C423.073,1586.71 421.385,1586.89 420.42,1586.89C407.157,1586.89 396.487,1585.62 388.408,1583.09C382.839,1581.35 377.298,1578.94 371.786,1575.88C369.843,1574.79 367.534,1574.57 365.421,1575.27C363.308,1575.97 361.582,1577.52 360.664,1579.54C356.411,1588.87 349.615,1603.86 345.937,1611.98Z" style="fill:rgb(19,0,69);fill-rule:nonzero;"/>
                    </g>
                    <g transform="matrix(1,0,0,1,-12.3997,8.08953)">
                        <path d="M707.262,1455.63C707.262,1451.21 703.68,1447.63 699.262,1447.63C686.601,1447.63 662.09,1447.63 649.429,1447.63C645.011,1447.63 641.429,1451.21 641.429,1455.63C641.429,1477.8 641.429,1538.42 641.429,1538.42C641.429,1564.94 632.386,1578.21 614.3,1578.21C605.86,1578.21 599.771,1575.62 596.034,1570.43C592.296,1565.25 590.427,1557.11 590.427,1546.01C590.427,1546.01 590.427,1479.08 590.427,1455.63C590.427,1453.51 589.584,1451.47 588.084,1449.97C586.584,1448.47 584.549,1447.63 582.427,1447.63L532.595,1447.63C528.176,1447.63 524.595,1451.21 524.595,1455.63C524.595,1480.42 524.595,1554.33 524.595,1554.33C524.595,1566.63 525.559,1577.48 527.488,1586.89C529.418,1596.29 532.673,1605.22 537.255,1613.65C541.837,1622.1 548.709,1628.55 557.873,1633.01C567.036,1637.47 578.37,1639.7 591.874,1639.7C616.936,1639.7 637.571,1636.08 645.046,1626.43C645.046,1626.43 645.046,1628.9 645.046,1631.7C645.046,1636.12 648.628,1639.7 653.046,1639.7C664.983,1639.7 687.325,1639.7 699.262,1639.7C703.68,1639.7 707.262,1636.12 707.262,1631.7C707.262,1600.46 707.262,1486.87 707.262,1455.63Z" style="fill:rgb(19,0,69);fill-rule:nonzero;"/>
                    </g>
                    <g transform="matrix(1,0,0,0.992401,-34.204,24.1389)">
                        <path d="M736.199,1628.02C736.199,1630.16 737.042,1632.21 738.542,1633.72C740.042,1635.23 742.077,1636.08 744.199,1636.08L794.031,1636.08C796.153,1636.08 798.188,1635.23 799.688,1633.72C801.189,1632.21 802.031,1630.16 802.031,1628.02L802.031,1406.13C802.031,1404 801.189,1401.94 799.688,1400.43C798.188,1398.92 796.153,1398.07 794.031,1398.07L744.199,1398.07C742.077,1398.07 740.042,1398.92 738.542,1400.43C737.042,1401.94 736.199,1404 736.199,1406.13L736.199,1628.02Z" style="fill:rgb(19,0,69);fill-rule:nonzero;"/>
                    </g>
                    <g transform="matrix(0.965926,-0.258819,0.258819,0.965926,-420.512,299.258)">
                        <path d="M990.555,1626.2C994.393,1624.18 995.918,1619.47 993.992,1615.58C989.916,1607.33 983.035,1593.45 978.854,1585.03C976.924,1581.13 972.244,1579.49 968.308,1581.33C956.97,1586.5 944.703,1589.06 931.526,1589.06C913.088,1589.06 900.748,1583.05 894.508,1571.04C893.865,1569.81 893.911,1568.33 894.63,1567.14C895.349,1565.95 896.636,1565.23 898.024,1565.23C915.021,1565.18 964.556,1565.18 993.332,1565.18C1005.37,1565.18 1015.35,1555.86 1016.17,1543.85C1016.17,1543.85 1016.17,1543.84 1016.17,1543.84C1016.17,1517.08 1007.25,1494.35 989.401,1475.66C971.556,1456.97 949.612,1447.63 923.568,1447.63C896.319,1447.63 873.47,1456.91 855.023,1475.48C836.575,1494.05 827.352,1516.84 827.352,1543.84C827.352,1573.26 837.359,1596.59 857.374,1613.84C877.389,1631.08 901.986,1639.7 931.164,1639.7C953.493,1639.7 973.29,1635.2 990.555,1626.2ZM923.568,1499.35C932.008,1499.35 939.303,1502.01 945.452,1507.31C950.316,1511.51 953.558,1516.68 955.178,1522.84C955.504,1524.05 955.248,1525.34 954.486,1526.34C953.724,1527.33 952.542,1527.92 951.288,1527.92C939.281,1527.93 908.166,1527.93 895.635,1527.93C894.321,1527.93 893.088,1527.29 892.332,1526.21C891.575,1525.14 891.389,1523.76 891.833,1522.53C894.086,1516.52 897.536,1511.44 902.227,1507.31C908.255,1502.01 915.369,1499.35 923.568,1499.35Z" style="fill:rgb(19,0,69);fill-rule:nonzero;"/>
                    </g>
                    <g transform="matrix(1,0,0,0.993395,-71.009,22.5131)">
                        <path d="M1041.49,1628.03C1041.49,1632.48 1045.07,1636.08 1049.49,1636.08C1062.15,1636.08 1086.66,1636.08 1099.32,1636.08C1103.74,1636.08 1107.32,1632.48 1107.32,1628.03C1107.32,1596.58 1107.32,1482.24 1107.32,1450.79C1107.32,1446.34 1103.74,1442.73 1099.32,1442.73C1086.66,1442.73 1062.15,1442.73 1049.49,1442.73C1045.07,1442.73 1041.49,1446.34 1041.49,1450.79C1041.49,1482.24 1041.49,1596.58 1041.49,1628.03ZM1036.79,1389.81C1036.79,1399.94 1040.46,1408.68 1047.82,1416.04C1055.17,1423.39 1063.91,1427.07 1074.04,1427.07C1084.41,1427.07 1093.33,1423.39 1100.81,1416.04C1108.29,1408.68 1112.02,1399.94 1112.02,1389.81C1112.02,1379.44 1108.29,1370.58 1100.81,1363.23C1093.33,1355.87 1084.41,1352.2 1074.04,1352.2C1063.91,1352.2 1055.17,1355.87 1047.82,1363.23C1040.46,1370.58 1036.79,1379.44 1036.79,1389.81Z" style="fill:rgb(19,0,69);fill-rule:nonzero;"/>
                    </g>
                </g>
            </g>
        </g>
    </g>
</svg>
